<svg width="1536" height="815" xmlns="http://www.w3.org/2000/svg" xml:space="preserve" style=""><path  fill="currentColor" d="M751.36 2.821c-40.979 3.919-91.864 10.3-103.68 13.003-18.725 4.283-48.723 15.075-66.56 23.947-9.152 4.552-21.248 10.137-26.88 12.41L544 56.314l10.92-9.597c19.916-17.504 12.671-20.004-27.966-9.651C483.112 48.235 450.479 61.271 414.72 81.9c-9.152 5.279-32.768 17.894-52.48 28.032-29.055 14.943-90.273 53.309-112 70.191-4.091 3.179-6.365 11.877-3.106 11.877.756 0 18.324-11.403 39.04-25.339 41.83-28.14 44.168-29.519 91.62-54.026 18.411-9.508 38.276-20.319 44.144-24.023 22.845-14.422 61.23-30.256 97.173-40.086l26.31-7.196-11.59 12.892C523.72 65.467 518.758 76.8 523.945 76.8c.938 0 13.322-5.65 27.52-12.556 82.222-39.992 110.559-47.071 216.099-53.991 55.978-3.67 54.688-3.791 40.456 3.777-18.582 9.88-34.69 22.642-34.8 27.57-.125 5.601 6.059 5.699 37.02.585 47.11-7.782 72.322-11.101 96-12.638l24.32-1.578-14.08 6.151c-14.785 6.458-59.242 33.549-86.402 52.651-10.536 7.409-15.998 12.998-15.998 16.368 0 4.827 1.148 5.021 20.221 3.431 13.083-1.091 26.411-4.228 37.76-8.886 45.932-18.853 77.441-27.055 98.177-25.557l11.518.833-15.358 11.647c-16.388 12.429-19.734 19.383-8.958 18.619 3.52-.25 21.376-2.783 39.68-5.63s43.648-5.947 56.32-6.889l23.04-1.712-15.36 11.95c-8.448 6.572-20.832 16.17-27.52 21.328-13.127 10.126-16.94 20.519-6.4 17.444 18.888-5.512 42.821-7.117 85.12-5.71 67.466 2.244 66.851 1.804 28.76 20.569-35.331 17.405-55.441 31.224-55.561 38.18-.068 3.964 1.242 4.323 9.521 2.611 5.28-1.092 28.608-1.847 51.84-1.679 36.496.266 47.636 1.404 81.92 8.369 53.591 10.887 51.52 10.089 40.816 15.725-15.387 8.104-26.345 19.182-24.803 25.077.961 3.678-.067 5.743-3.385 6.796-7.558 2.398-24.239 23.001-27.537 34.011-6.216 20.745-2.767 56.057 7.315 74.895 2.06 3.849.534 4.91-11.007 7.657-33.057 7.868-67.701 26.737-96.753 52.696-22.553 20.153-79.986 81.816-82.484 88.56-3.385 9.137 1.731 10.449 16.41 4.208 21.964-9.339 36.261-18.555 68.238-43.987 16.494-13.118 39.206-30.286 50.47-38.151 11.264-7.865 30.434-23.619 42.6-35.011l22.12-20.711 7.273 9.569c11.55 15.196 19.079 21.089 26.941 21.089 10.263 0 9.355-5.842-2.585-16.629-11.243-10.158-21.53-35.058-25.791-62.431-2.192-14.083-1.818-18.504 2.708-32 6.019-17.949 14.988-31.016 22.667-33.024 4.075-1.066 7.344 1.297 14.172 10.239 12.007 15.724 24.705 43.085 26.279 56.623 1.515 13.021 7.021 16.585 13.419 8.685 3.83-4.73 3.978-6.899 1.203-17.707-1.739-6.774-2.262-12.664-1.162-13.09 1.099-.425 9.882 2.792 19.517 7.151 32.496 14.699 57.724 46.662 72.838 92.283 17.354 52.382 38.866 79.982 68.072 87.336 10.307 2.595 11.009 3.335 11.009 11.596 0 4.854 1.117 10.911 2.482 13.462 2.163 4.042.439 5.376-13.44 10.398-8.757 3.169-26.746 10.799-39.976 16.955-22.726 10.575-25.31 11.193-46.822 11.193-25.308 0-39.507-5.022-47.141-16.673-4.658-7.109-9.208-8.087-13.509-2.905-2.19 2.638-1.501 5.499 2.895 12.021 7.604 11.283 19.551 17.98 35.926 20.138l13.345 1.759-15.36 4.442c-36.592 10.583-91.631 28.308-116.48 37.511-33.581 12.437-56.657 19.07-84.264 24.221-54.039 10.082-77.016 23.245-77.016 44.118 0 4.808 1.629 11.892 3.619 15.741 4.624 8.942 18.794 20.718 27.085 22.509 13.602 2.938 14.316 4.04 5.136 7.937-4.928 2.092-20.634 6.159-34.901 9.039l-25.942 5.236-7.726-5.502c-4.249-3.025-11.829-11.683-16.844-19.239-22.836-34.403-58.802-49.63-92.582-39.197-26.284 8.118-53.648 21.792-54.503 27.235-1.07 6.813 5.181 6.812 25.411-.003 21.977-7.403 58.09-13.303 70.127-11.457 13.691 2.1 22.199 9.723 31.462 28.189 17.494 34.875 38.845 41.487 86.552 26.802 27.957-8.606 34.752-12.236 41.134-21.976 6.111-9.326 2.338-13.935-16.875-20.612-16.544-5.751-25.793-12.095-25.793-17.694 0-6.098 13.449-19.243 26.407-25.809 7.116-3.606 26.262-9.215 42.546-12.464 16.284-3.25 41.703-10.062 56.487-15.139 14.784-5.077 34.368-11.581 43.52-14.453l60.16-18.879c23.936-7.512 48.128-14.892 53.76-16.4 5.632-1.509 20.602-8.691 33.266-15.961 28.248-16.215 74.712-33.314 92.066-33.881 11.37-.371 13.302-1.319 18.56-9.113 3.227-4.784 5.868-12.072 5.868-16.197 0-9.168-12.312-22.431-20.923-22.539-11.846-.148-41.025-9.744-47.578-15.647-20.419-18.391-39.034-48.917-48.176-78.998-15.677-51.589-36.504-74.99-84.212-94.623-16.995-6.994-20.793-7.79-22.706-4.756-1.702 2.698-5.06-1.703-12.951-16.969-9.469-18.32-12.052-21.309-23.228-26.882l-12.575-6.27 12.655-3.325c6.96-1.828 27.054-4.064 44.654-4.967l32-1.643-13.066 10.518c-13.893 11.182-31.734 31.461-31.734 36.068 0 6.375 7.502 1.798 21.851-13.333 8.398-8.855 20.453-19.556 26.789-23.777 15.261-10.17 14.931-14.575-1.28-17.06-13.384-2.051-62.011 1.695-78.978 6.085-14.815 3.833-13.722 1.337 3.412-7.795 8.473-4.516 15.406-9.735 15.406-11.596 0-2.216-9.948-5.661-28.8-9.973-57.774-13.216-73.354-15.272-117.686-15.531-23.617-.138-42.944-.942-42.947-1.786-.007-1.585 62.367-33.164 74.873-37.908 4.251-1.613 7.04-4.585 7.04-7.504 0-3.837-3.033-5.438-14.72-7.767-36.118-7.197-90.547-9.006-121.912-4.051-9.869 1.559-7.167-1.424 18.657-20.595 28.03-20.809 27.735-24.32-2.04-24.32-12.504 0-37.985 2.304-56.625 5.12-18.64 2.816-35.094 5.12-36.565 5.12-1.471 0 2.698-4.186 9.265-9.302 18.896-14.722 15.318-18.758-16.693-18.823-23.843-.049-49.779 5.934-82.726 19.081-15.489 6.181-31.041 11.824-34.561 12.541-3.52.716-9.856 2.044-14.08 2.951-7.244 1.556-7.026 1.158 3.84-6.999 24.896-18.69 72.979-45.958 93.034-52.76 61.975-21.019-20.997-23.65-131.434-4.167l-8.96 1.58 6.4-5.242c3.52-2.884 14.211-8.994 23.759-13.578 11.62-5.58 17.11-9.629 16.608-12.249-.621-3.24-6.246-3.97-32.718-4.244-17.583-.182-42.337.66-55.009 1.872m-102.4 47.317c-58.783 8.594-84.791 16.079-109.415 31.487-36.965 23.131-79.195 54.301-97.979 72.319-18.669 17.908-39.646 47.156-39.646 55.278 0 5.285 6.782 3.727 10.89-2.502 2.548-3.864 9.597-7.385 21.414-10.697 31.498-8.827 54.195-19.561 132.816-62.814 28.472-15.663 33.177-18.811 73.501-49.169 22.121-16.654 41.417-30.28 42.88-30.28 1.462 0 2.659-1.728 2.659-3.84 0-4.546-4.728-4.518-37.12.218m128 7.554c-9.856 3.27-27.136 7.814-38.4 10.099-21.368 4.334-79.115 22.503-105.184 33.094-8.325 3.381-15.508 7.986-15.964 10.232-1.118 5.516 1.665 5.19 21.89-2.567 39.05-14.976 92.975-32.486 94.708-30.753.4.4-21.452 12.023-48.561 25.829-51.394 26.175-55.689 28.671-55.689 32.367 0 5.397 11.997.343 72.613-30.589 35.391-18.06 72.123-35.618 81.627-39.017 12.441-4.451 17.28-7.442 17.28-10.684 0-5.579-1.998-5.415-24.32 1.989M631.314 79.273c-36.022 26.949-45.296 33.133-68.114 45.414-10.56 5.684-23.232 12.588-28.16 15.341-51.044 28.517-103.175 51.321-111.136 48.615-5.379-1.828 43.549-46.72 71.466-65.57 15.483-10.455 31.434-21.71 35.448-25.012 9.797-8.061 45.957-25.029 61.822-29.009 17.697-4.441 46.906-9.463 57.286-9.85 8.121-.302 6.991.917-18.612 20.071M755.2 94.569c-13.169 4-44.802 18.916-63.253 29.825-10.5 6.207-19.414 11.286-19.81 11.286-.396 0-15.104 9.009-32.683 20.02-78.207 48.986-101.33 69.386-125.738 110.926-21.685 36.908-19.255 41.648 10.062 19.629 9.714-7.295 22.658-17.609 28.764-22.918 12.569-10.929 29.864-21.79 26.978-16.941-1.049 1.762-6.59 9.375-12.314 16.917-44.087 58.095-48.596 72.871-16.456 53.921 24.617-14.515 43.214-30.775 69.645-60.891 28.59-32.578 33.11-38.72 60.109-81.688 9.976-15.876 24.013-35.62 31.194-43.877 11.55-13.279 15.479-15.891 34.04-22.63 11.617-4.218 20.982-9.105 20.982-10.95 0-4.271-3.493-5.068-11.52-2.629m113.92 11.583c-7.04 1.878-25.773 5.3-41.628 7.604-63.548 9.234-94.329 26.867-134.454 77.022-24.662 30.828-60.718 82.014-60.718 86.198 0 3.275 19.617.599 35.767-4.88 37.193-12.619 67.897-34.5 109.952-78.357 56.665-59.093 62.453-64.416 77.996-71.722 8.292-3.898 18.372-7.746 22.4-8.552 4.935-.987 7.325-3.031 7.325-6.265 0-5.551.191-5.539-16.64-1.048m90.88.568c-24.167 4.012-66.378 16.117-88.643 25.42-17.226 7.198-49.076 34.328-69.439 59.15-11.293 13.767-23.544 27.823-27.225 31.236-7.245 6.718-8.793 12.994-3.205 12.994 1.918 0 7.966-3.583 13.44-7.962 17.89-14.313 84.906-56.038 90.005-56.038 1.896 0 32.763-17.974 50.507-29.41 7.04-4.537 22.88-13.213 35.2-19.278 23.421-11.532 28.728-18.137 14.08-17.523-4.576.191-11.2.826-14.72 1.411m-523.52 9.729c-1.408.465-13.504 3.367-26.88 6.45-31.65 7.294-59.951 20.782-87.488 41.695-21.735 16.507-26.87 20.629-45.45 36.489-5.028 4.292-16.894 13.876-26.368 21.297-9.474 7.422-29.922 26.866-45.44 43.208-22.236 23.418-28.214 31.246-28.214 36.943 0 3.976 1.238 7.229 2.752 7.229 4.666 0 74.11-46.756 122.356-82.381 13.588-10.034 31.296-20.628 32.487-19.437 2.187 2.187-25.203 53.671-39.978 75.146-4.145 6.025-7.537 12.763-7.537 14.973 0 6.671 6.678 4.534 13.44-4.301 3.502-4.576 15.288-18.112 26.191-30.08 10.903-11.968 35.458-41.344 54.567-65.28s42.596-51.209 52.193-60.607c9.597-9.398 17.449-18.326 17.449-19.84 0-2.56-8.219-3.438-14.08-1.504m496.64 10.376c-8.448 4.943-17.636 10.397-20.418 12.121-19.346 11.988-33.278 19.959-49.982 28.595-10.56 5.459-26.089 14.275-34.509 19.591-8.419 5.315-15.773 9.2-16.34 8.632-2.847-2.846 30.714-34.393 52.129-49.001 9.379-6.397 31.569-14.94 58.88-22.666 27.489-7.777 27.975-7.647 10.24 2.728m-122.19 18.32c-57.334 60.301-71.245 73.968-88.694 87.138-10.386 7.838-24.786 17.109-32 20.602-16.892 8.178-39.996 16.163-39.996 13.823 0-2.607 17.012-27.647 29.244-43.045 5.74-7.225 17.327-22.051 25.749-32.947 15.706-20.318 34.082-36.182 55.985-48.333 14.481-8.034 50.426-19.17 62.512-19.367l8.369-.136-21.169 22.265m-399.316 1.578c-8.852 10.298-22.43 26.62-30.174 36.272-18.648 23.242-51.361 63.387-54.274 66.605-1.275 1.408 2.808-8.384 9.074-21.76 15.671-33.456 16.263-35.842 8.893-35.833-6.609.007-27.808 12.141-50.119 28.687-16.651 12.349-33.662 24.369-72.136 50.973-20.845 14.413-25.532 16.834-21.311 11.005 21.479-29.658 136.109-122.807 169.633-137.844 14.99-6.723 44.741-16.003 53.214-16.597 1.811-.127-3.949 8.194-12.8 18.492m178.697-11.417c-1.39 2.249-76.837 43.894-79.522 43.894-.824 0-14.425 6.337-30.224 14.081-35.906 17.602-94.965 55.02-96.094 60.883-1.305 6.776 4.17 5.305 21.111-5.674 8.546-5.539 18.91-10.899 23.031-11.912l7.493-1.84-5.373 7.431c-2.955 4.087-13.239 16.194-22.853 26.904-20.947 23.336-51.134 62.669-61.679 80.367-29.463 49.446-41.561 70.674-41.561 72.925 0 5.102 9.291 2.332 30.669-9.145 35.303-18.952 53.438-32.044 84.531-61.022 21.983-20.488 52.886-58.599 66.589-82.118 27.423-47.068 61.584-86.913 93.804-109.409 10.203-7.124 19.205-14.655 20.003-16.736 2.449-6.381-6.504-14.164-9.925-8.629m89.013 24.054c-35.901 55.81-46.207 69.523-74.714 99.415-16.204 16.991-36.183 35.457-44.396 41.035-8.214 5.577-14.934 9.653-14.934 9.056 0-.597 8.26-11.872 18.355-25.056 30.104-39.314 38.988-55.97 29.852-55.97-6.114 0-46.14 25.031-53.327 33.349-3.504 4.055-20.48 15.648-20.48 13.985 0-3.409 20.829-32.974 30.386-43.131 13.845-14.715 45.097-37.314 89.766-64.911 46.722-28.867 55.005-33.911 55.79-33.969.32-.024-7.014 11.765-16.298 26.197m351.076-13.352c-29.568.929-57.744 3.006-62.613 4.615-10.825 3.577-31.417 23.397-50.968 49.057-20.335 26.69-24.983 33.644-27.156 40.637l-1.889 6.078 10.245-5.759c5.635-3.167 12.958-8.256 16.273-11.308 33.099-30.479 67.811-48.218 120.068-61.363 46.938-11.806 57.28-15.446 58.308-20.519.54-2.668-.793-3.919-3.84-3.606-2.568.264-28.86 1.24-58.428 2.168m19.2 8.615c0 .563-8.928 2.965-19.84 5.339-38.153 8.301-68.378 21.329-95.056 40.973l-16.335 12.029 11.615-14.962c20.347-26.21 33.162-36.985 48.356-40.661 12.287-2.973 71.26-5.222 71.26-2.718M532.197 191.36c-16.743 17.236-32.997 37.014-32.997 40.152 0 .91-2.179 4.777-4.843 8.592-2.663 3.815-12.357 18.456-21.541 32.536-19.432 29.792-25.326 37.312-47.856 61.059-25.871 27.269-64.659 56.578-97.035 73.321l-6.155 3.183 5.176-8.621c2.847-4.742 9.566-16.686 14.931-26.542 5.364-9.856 13.223-23.104 17.462-29.44 7.997-11.951 41.39-54.709 47.983-61.44 9.405-9.602 32.376-38.025 37.666-46.606 3.217-5.217 5.498-11.336 5.07-13.597-.538-2.846 5.133-7.212 18.422-14.18 29.261-15.345 72.502-35.376 76.731-35.546 2.075-.083-3.782 7.625-13.014 17.129m332.628 7.045c-12.218 7.645-38.714 22.719-58.88 33.498-53.395 28.54-61.745 34.622-94.265 68.659-16.192 16.947-40.096 41.408-53.12 54.358-13.024 12.949-23.68 24.789-23.68 26.312 0 4.174 7.663 3.244 20.221-2.454 6.194-2.81 11.805-4.566 12.469-3.901.664.664-4.115 8.667-10.621 17.784-6.506 9.117-11.829 17.81-11.829 19.318 0 3.418 6.306 3.549 12.195.253 2.445-1.368 17.693-8.939 33.885-16.825 50.514-24.601 90.438-54.513 108.858-81.559 9.748-14.313 16.68-25.945 22.27-37.368 14.025-28.662 26.263-46.204 45.416-65.103 11.317-11.166 20.576-21.822 20.576-23.68 0-1.857-.288-3.336-.64-3.285-.352.05-10.637 6.347-22.855 13.993m166.689-3.205c-20.5 12.231-32.411 17.735-79.194 36.593-46.055 18.564-64.258 27.122-81.938 38.525-16.075 10.368-46.062 34.776-46.062 37.492 0 1.239.864 1.761 1.92 1.161 3.621-2.059 19.841-8.609 27.996-11.306 9.511-3.144 18.724 1.5 18.724 9.439 0 2.604-12.807 18.342-28.459 34.974-26.174 27.812-53.461 63.523-53.461 69.966 0 1.472 1.326 2.676 2.946 2.676 2.845 0 41.354-17.755 62.334-28.74 39.007-20.425 65.875-47.994 115.416-118.431 17.993-25.581 40.099-47.092 64.424-62.689 11.616-7.448 21.12-14.54 21.12-15.761 0-4.778-12.489-1.821-25.766 6.101M1088 206.178c-29.882 11.221-58.88 27.326-58.88 32.702 0 3.671 1.101 4.389 4.48 2.921 25.35-11.014 72.298-19.081 111.048-19.081 36.182 0 40.557-5.443 13.049-16.236-22.974-9.013-46.236-9.115-69.697-.306m55.04 4.93c7.646 3.501 7.618 3.517-6.4 3.742-7.744.125-22.144.955-32 1.846-19.841 1.792-20.688-.671-1.961-5.708 15.953-4.292 30.824-4.247 40.361.12M837.663 229.76c-2.709 3.872-10.988 18.56-18.396 32.64-16.556 31.466-35.905 59.81-48.753 71.417-15.085 13.628-52.838 38.166-78.724 51.167-12.94 6.499-24.161 11.816-24.935 11.816-2.206 0 9.166-15.434 21.14-28.69 5.987-6.628 10.885-13.252 10.885-14.72 0-4.513-8.411-2.922-20.207 3.821-6.185 3.536-11.564 6.111-11.953 5.723-.793-.793 24.226-27.712 57.418-61.778 25.783-26.462 39.139-36.008 80.982-57.88 16.896-8.832 31.814-17.07 33.152-18.307 4.571-4.227 4.32-2.254-.609 4.791m145.348 8.355c-5.911 7.06-16.34 20.596-23.176 30.08a39129.15 39129.15 0 0 1-23.386 32.405c-18.782 25.989-47.305 54.219-68.553 67.849-11.139 7.145-20.874 12.991-21.634 12.991-.759 0-8.507 3.452-17.217 7.671-8.71 4.219-16.255 7.252-16.767 6.74-1.229-1.229 16.252-23.244 28.719-36.171 32.907-34.118 39.643-43.127 39.643-53.021 0-10.497-6.939-19.939-14.654-19.939-6.01 0 27.389-20.299 47.934-29.132 9.152-3.935 20.262-8.778 24.688-10.763 8.361-3.747 52.728-21.284 54.27-21.45.483-.052-3.957 5.681-9.867 12.74m179.229-.035c-3.52 1.127-18.569 2.164-33.443 2.305-29.75.281-77.975 5.941-91.997 10.799-13.682 4.739-19.03 8.702-56.526 41.887-19.121 16.923-37.265 32.774-40.32 35.224-6.658 5.34-7.292 12.185-1.128 12.185 9.155 0 39.871-13.743 58.969-26.383 10.893-7.211 24.555-16.202 30.36-19.981l10.555-6.871-10.013 24.515c-9.596 23.494-10.737 31.28-4.583 31.28 4.875 0 31.002-21.848 52.638-44.017 27.65-28.331 61.102-47.681 91.362-52.847 7.172-1.224 11.003-3.291 11.572-6.243.932-4.844-5.857-5.565-17.446-1.853m-45.843 17.963c-20.323 11.202-39.284 26.21-51.665 40.893-6.008 7.124-15.903 17.034-21.99 22.022-9.723 7.968-10.785 8.348-8.74 3.136 4.781-12.192 11.945-26.739 17.81-36.16 3.329-5.348 5.398-10.377 4.599-11.176-3.897-3.898-21.466 3.43-43.056 17.959-27.701 18.641-48.123 30.876-49.262 29.514-1.675-2.003 56.936-53.117 66.506-58 15.01-7.657 29.718-10.977 58.43-13.19 44.659-3.442 43.178-3.712 27.368 5.002m-865.393 23.226c-17.51 9.544-33.986 20.973-43.644 30.276-2.112 2.034-17.664 14.64-34.56 28.013-16.896 13.373-37.056 30.797-44.8 38.72-30.044 30.739-104.53 139.28-101.32 147.645 2.092 5.45 4.389 4.391 27.626-12.734 35.222-25.957 47.179-36.361 87.137-75.819 39.718-39.22 52.654-54.224 77.34-89.702 15.266-21.94 19.523-27.11 44.897-54.537 7.744-8.371 15.001-16.819 16.127-18.775 3.959-6.877-9.372-3.677-28.803 6.913m423.556.195c-5.632 2.925-20.962 11.59-34.066 19.257-13.104 7.666-31.3 16.752-40.436 20.19-39.18 14.748-75.646 37.193-95.218 58.607-7.233 7.914-19.694 24.994-27.692 37.955-24.814 40.215-46.359 71.937-53.257 78.413-6.38 5.99-9.032 15.554-4.313 15.554 1.264 0 12.496-6.176 24.96-13.725 12.464-7.549 34.182-20.409 48.262-28.578 42.634-24.736 54.904-32.176 58.264-35.326 1.766-1.656 9.973-8.697 18.238-15.646 8.265-6.95 27.971-28.921 43.791-48.826 15.82-19.904 40.429-48.203 54.687-62.885 14.258-14.681 25.936-27.558 25.952-28.614.051-3.457-8.734-1.797-19.172 3.624m-324.493 8.443c-30.908 15.452-88.047 55.736-117.371 82.748-15.326 14.118-34.98 43.011-53.482 78.625-7.315 14.08-14.342 26.694-15.617 28.032-3.539 3.715-2.76 9.088 1.319 9.088 5.295 0 53.966-29.658 71.884-43.802 24.818-19.593 46.587-43.741 67.824-75.238 11.257-16.695 35.401-46.67 55.595-69.019 23.397-25.895 22.538-26.778-10.152-10.434m-104.634 8.396c-1.932 2.455-6.722 7.927-10.643 12.16-3.922 4.233-15.279 19.604-25.239 34.157-28.549 41.717-88.442 104.189-135.311 141.139-9.152 7.215-18.766 14.875-21.363 17.023-2.598 2.148-5.056 3.534-5.463 3.081-1.198-1.335 24.554-40.773 43.461-66.555 30.318-41.345 53.86-66.584 81.62-87.504 7.208-5.432 22.321-17.603 33.585-27.047 18.625-15.615 39.347-30.917 41.868-30.917.549 0-.582 2.008-2.515 4.463m897.607 5.43c-119.899 42.374-129.204 46.715-151.957 70.901-9.352 9.94-19.301 22.612-22.109 28.16-4.649 9.185-15.409 28.641-26.814 48.486-2.428 4.224-8.261 14.592-12.964 23.04-4.703 8.448-14.671 24.654-22.153 36.014-7.482 11.36-13.603 21.44-13.603 22.4 0 3.581 8.089 1.552 17.499-4.388 13.411-8.466 45.907-24.526 73.074-36.115 37.483-15.988 55.108-27.054 78.66-49.385 22.231-21.078 31.711-33.967 69.81-94.91 20.149-32.229 27.122-39.766 41.353-44.692 5.59-1.936 9.912-4.555 9.604-5.822-1.239-5.09-13.609-3.158-40.4 6.311m-811.044 14.201c-7.659 9.028-24.11 30.628-36.557 48-23.52 32.825-50.24 61.394-73.473 78.558-13.242 9.782-40.206 24.726-40.206 22.282 0-2.377 19.809-37.536 30.365-53.894 12.142-18.816 33.053-40.117 56.546-57.6 4.73-3.52 12.358-9.28 16.95-12.8 15.62-11.973 56.584-40.036 59.499-40.761.44-.109-5.466 7.187-13.124 16.215m313.128-1.694c-7.272 8.096-25.698 30.272-40.949 49.28-15.938 19.866-35.713 41.18-46.511 50.13-14.71 12.194-57.843 39.333-110.7 69.653-2.76 1.583-2.944 1.9 19.812-34.023 38.108-60.158 41.178-64.159 61.864-80.622 19.083-15.187 42.073-27.921 73.244-40.569 13.22-5.365 30.948-13.984 39.396-19.155 8.448-5.17 15.743-9.404 16.212-9.407.469-.004-5.097 6.617-12.368 14.713m-127.957-7.707c-2.086.819-13.03 9.675-24.32 19.68-36.737 32.556-79.111 62.542-140.516 99.436-24.764 14.879-29.657 18.517-52.094 38.733-15.172 13.671-39.117 46.004-39.117 52.821 0 7.137 1.014 6.709 32.821-13.866 14.333-9.271 26.059-16.28 26.059-15.576 0 .704-5.184 8.404-11.52 17.112-18.828 25.875-14.646 29.281 13.101 10.668 9.69-6.501 33.747-21.029 53.459-32.285 40.043-22.866 49.708-30.102 79.585-59.576 24.173-23.848 32.932-36.874 54.423-80.937 18.516-37.964 19.088-40.516 8.119-36.21m622.963 8.987c-1.063 1.76-9.195 14.46-18.071 28.222-8.876 13.763-16.139 25.608-16.139 26.323 0 5.637-28.104 42.326-45.972 60.015-23.563 23.327-45.13 37.41-78.188 51.059-11.264 4.651-29.527 12.994-40.585 18.54-11.058 5.547-20.816 9.373-21.686 8.504-.869-.87-.378-2.383 1.092-3.362 1.47-.98 3.412-3.509 4.315-5.621.903-2.112 5.427-10.325 10.053-18.251 4.626-7.926 17.627-30.909 28.891-51.072 23.834-42.664 41.321-63.235 63.101-74.23 15.495-7.821 102.075-40.503 114.33-43.156.435-.094-.078 1.269-1.141 3.029m-644.96 34.166c-11.932 27.094-33.264 56.046-56.912 77.244-26.417 23.68-36.563 30.772-72.178 50.453-14.784 8.17-30.547 17.573-35.029 20.896-9.617 7.129-13.387 7.86-8.048 1.561 6.005-7.085 14.917-23.614 14.917-27.666 0-6.547-7.26-3.995-29.553 10.386-12.004 7.744-22.438 14.08-23.188 14.08-.749 0 2.843-5.132 7.983-11.404 13.178-16.082 39.782-36.929 70.727-55.422 36.243-21.659 80.309-51.908 110.991-76.19 14.08-11.143 25.903-19.988 26.273-19.655.37.332-2.322 7.405-5.983 15.717m424.801 20.126c-25.536 8.683-53.669 19.037-62.518 23.008-40.813 18.316-103.89 68.023-86.253 67.97 1.76-.005 6.992-2.321 11.626-5.146 10.234-6.24 63.473-28.504 81.174-33.947 25.54-7.853 25.527-7.865 10.566 9.261-7.573 8.669-25.596 34.194-40.052 56.722s-32.297 50.176-39.647 61.44c-29.743 45.578-30.554 47.36-21.568 47.36 7.486 0 51.074-44.349 73.879-75.17 19.858-26.837 49.514-62.004 85.142-100.965 11.978-13.098 25.986-30.927 31.129-39.621 9.401-15.892 12.098-27.764 6.151-27.072-1.76.205-24.093 7.477-49.629 16.16m-159.651 1.013c-126.707 59.418-153.405 77.85-186.536 128.776-8.559 13.155-16.496 25.071-17.639 26.479-1.143 1.408-7.656 12.352-14.474 24.32-6.817 11.968-15.13 25.427-18.473 29.909-6.573 8.813-7.933 16.171-2.989 16.171 1.699 0 9.945-4.81 18.326-10.688 8.381-5.879 33.199-20.761 55.151-33.072 77.557-43.493 81.228-46.375 112.179-88.08 10.858-14.63 35.484-41.715 57.471-63.208 21.209-20.734 37.971-39.113 37.356-40.96-2.088-6.27-8.347-4.665-40.372 10.353m195.383 4.855c-8.605 13.719-20.178 27.843-44.577 54.4-30.715 33.431-51.957 58.527-65.007 76.8-16.219 22.711-54.718 67.39-48.529 56.32 2.989-5.345 22.533-35.964 49.022-76.8 22.023-33.95 26.496-39.827 49.176-64.61 14.316-15.643 12.2-19.067-9.114-14.75-18.737 3.794-36.259 9.204-55.591 17.164-8.249 3.396-15.464 5.708-16.035 5.138-1.014-1.015 29.252-20.104 43.2-27.246 9.709-4.972 91.731-32.99 97.331-33.247 4.316-.199 4.322.137.124 6.831m244.937 13.769c-9.152 8.495-27.584 23.283-40.96 32.86-13.376 9.577-34.599 25.656-47.162 35.729-28.256 22.657-56.916 41.883-60.605 40.653-1.526-.509 15.474-19.526 37.777-42.262 48.344-49.282 66.24-61.98 109.67-77.817 7.04-2.567 13.952-4.655 15.36-4.639 1.408.016-4.928 6.98-14.08 15.476m-424.96-12.032c0 .604-10.08 9.767-22.4 20.362-12.32 10.596-30.464 29.705-40.32 42.465-43.943 56.892-51.748 64.483-84.48 82.165-30.084 16.251-74.352 41.53-81.28 46.416-3.872 2.73-7.04 4.41-7.04 3.734 0-.676 4.653-9.106 10.341-18.734 36.023-60.981 58.376-88.668 88.002-108.999C658.01 431.44 764.6 377.632 773.76 376.547c1.056-.125 1.92.267 1.92.87m545.359 35.784c-1.715 5.197-2.169 14.071-1.123 21.959 1.452 10.947 2.861 13.657 8.138 15.664 3.51 1.335 8.41 1.783 10.889.996 10.782-3.422 13.19-31.819 3.597-42.419-2.449-2.706-7.642-4.921-11.538-4.921-5.79 0-7.611 1.594-9.963 8.721m-745.723 29.667c-3.708 2.917-22.862 12.659-42.565 21.649-19.703 8.989-45.969 23.136-58.368 31.436a22425.544 22425.544 0 0 1-51.983 34.658c-27.192 18.071-65.42 45.496-99.84 71.627-7.744 5.879-19.552 16.385-26.24 23.345-6.688 6.961-12.16 11.807-12.16 10.769 0-3.463 17.961-37.729 25.584-48.809 7.943-11.545 36.613-42.926 63.376-69.368 14.503-14.33 19.997-24.095 13.557-24.095-1.344 0-14.119 7.577-28.39 16.837-29.274 18.998-43.042 26.959-73.741 42.643-36.119 18.453-55.429 37.784-85.2 85.296-16.698 26.647-21.446 39.665-14.386 39.443 1.76-.055 12.989-8.703 24.954-19.216 11.965-10.514 22.159-17.904 22.653-16.423.494 1.482-.966 12.145-3.244 23.697-6.07 30.78-6.376 32.388-9.35 49.163-5.71 32.205-5.915 37.12-1.549 37.12 4.327 0 16.315-18.958 29.139-46.08 13.045-27.589 27.387-50.496 30.87-49.301 4.351 1.493 22.665-9.444 50.527-30.178 37.035-27.559 86.483-56.331 90.282-52.532 1.767 1.767-21.098 48.112-39.542 80.149-7.491 13.012-13.62 24.82-13.62 26.24 0 13.883 42.672-26.297 84.343-79.418 64.364-82.048 120.551-145.697 133.266-150.964 4.947-2.049 7.613-4.807 7.12-7.366-1.182-6.139-7.919-6.279-15.493-.322m-360.35 29.639c-9.111 9.254-27.052 24.712-39.867 34.35-37.008 27.832-44.517 38.592-71.48 102.423-8.029 19.008-17.348 40.642-20.709 48.076-11.896 26.315-6.798 27.541 17.839 4.289 9.652-9.109 20.184-17.224 23.404-18.032 7.209-1.809 19.573 4.31 26.498 13.114 6.761 8.595 15.2 34.446 17.337 53.105 1.719 15.012 4.534 19.79 9.018 15.306 1.599-1.599.953-12.834-1.82-31.649-7.19-48.781-2.852-81.678 16.168-122.609 4.907-10.56 11.58-26.688 14.829-35.84 3.249-9.152 12.331-30.039 20.182-46.416 7.851-16.377 14.275-30.489 14.275-31.36 0-.871-2.049-1.584-4.554-1.584-2.505 0-12.009 7.572-21.12 16.827m580.208-6.492c-8.286 4.112-20.958 9.71-28.16 12.44-53.47 20.271-85.883 38.758-184.614 105.294-9.856 6.642-24.832 15.736-33.28 20.21-21.942 11.619-32.226 18.207-43.693 27.99l-10.067 8.589 16.64-1.296c20.759-1.617 35.165-8.015 83.733-37.189 40.945-24.594 59.548-34.665 61.123-33.09 1.68 1.679-22.804 46.104-37.929 68.822-13.775 20.69-51.753 66.194-55.279 66.235-.951.011-11.912 10.106-24.358 22.434l-22.631 22.414-10.327-9.533c-13.852-12.789-49.046-23.585-57.944-17.775-6.098 3.981-2.337 11.816 6.034 12.569 24.496 2.206 41.981 10.884 48.945 24.294 4.463 8.594 1.993 14.34-9.961 23.167-12.409 9.162-27.118 14.006-43.115 14.197-12.366.147-15.239-.782-20.994-6.788-3.667-3.828-9.404-12.134-12.749-18.459-6.363-12.033-11.032-14.286-15.366-7.416-6.337 10.046 6.19 29.884 26.919 42.631l14.66 9.014 16.06-3.112c27.098-5.251 40.531-10.726 51.184-20.861 9.581-9.114 10.136-10.446 9.292-22.301l-.897-12.608 19.2-7.142c38.585-14.352 59.951-27.452 93.886-57.563 21.617-19.18 43.229-43.93 60.342-69.102 23.658-34.799 54.759-75.083 80.378-104.113 37.273-42.234 44.434-51.208 44.434-55.682 0-5.612-4.061-4.906-21.466 3.73m-251.373 8.225c-2.658 3.168-8.086 9.129-12.062 13.246-3.976 4.117-16.024 18.517-26.774 32s-26.014 32.002-33.92 41.154c-7.906 9.152-24.28 29.312-36.388 44.8-12.107 15.488-26.79 32.768-32.628 38.4l-10.616 10.24 18.272-35.84c19.005-37.277 24.948-57.6 16.846-57.6-11.78 0-65.123 30.996-112.931 65.62l-12.8 9.271 12.958-12.486c18.809-18.123 49.776-41.294 103.522-77.462 26.048-17.529 53.999-36.394 62.114-41.922 14.204-9.675 62.156-34.793 66.923-35.054 1.274-.07.142 2.465-2.516 5.633M113.92 497.702c-49.625 41.544-69.107 59.365-78.674 71.966-12.701 16.73-29.459 51.18-31.694 65.154l-1.776 11.109 16.127-1.685c8.871-.927 21.788-1.686 28.706-1.686 11.591 0 13.645-1.01 26.184-12.869 16.482-15.587 25.697-32.452 39.828-72.891 10.676-30.551 25.462-62.884 32.285-70.602 1.966-2.222 3.574-5.39 3.574-7.04 0-7.178-10.679-1.448-34.56 18.544m674.585-11.942c-3.006 3.872-14.984 17.408-26.618 30.08-11.634 12.672-28.899 33.408-38.367 46.08-9.467 12.672-18.596 24.791-20.287 26.931-8.885 11.248-17.153 22.802-17.153 23.97 0 4.642-20.223 29.779-42.151 52.392-34.501 35.581-68.011 60.246-92.249 67.901-2.816.889 7.129-10.936 22.099-26.278 30.749-31.512 49.943-56.347 67.72-87.625 6.706-11.798 17.176-29.949 23.267-40.335 6.091-10.387 11.074-20.038 11.074-21.447 0-7.282-34.882 5.624-62.625 23.172-19.251 12.175-64.052 37.725-71.775 40.933-7.175 2.979-7.343 2.926-2.56-.817 2.816-2.204 12.608-8.172 21.76-13.263 9.152-5.091 35.648-21.9 58.88-37.355 66.171-44.017 84.874-54.646 134.4-76.377 38.642-16.956 42.206-17.776 34.585-7.962m-572.663 2.56c-.878 2.464-2.405 5.632-3.392 7.04-.988 1.408-5.015 11.2-8.95 21.76-3.935 10.56-11.111 27.84-15.948 38.4-14.883 32.491-21.694 55.922-23.072 79.379l-1.279 21.779-9.344-9.343c-5.139-5.139-14.138-10.78-19.998-12.536-10.36-3.104-11.013-2.935-23.617 6.12-7.129 5.122-12.962 8.741-12.962 8.042 0-3.455 32.08-75.989 38.816-87.765 11.395-19.921 18.215-27.088 44.067-46.31 12.847-9.552 26.237-20.425 29.757-24.162 7.6-8.07 8-8.232 5.922-2.404M111.061 534.4c-6.165 16.544-11.211 31.308-11.215 32.808-.015 6.856-21.718 44.413-31.315 54.192-11.1 11.311-14.544 12.501-41.184 14.239-14.657.956-14.869.872-13.34-5.22 2.876-11.457 17.527-40.235 27.162-53.35 5.257-7.156 20.321-22.276 33.475-33.601 13.154-11.324 28.524-24.718 34.156-29.762 5.632-5.045 10.967-9.221 11.855-9.279.889-.059-3.429 13.429-9.594 29.973m868.069-24.041c-18.064 12.447-133.955 68.553-170.17 82.384-27.33 10.438-49.154 21.917-75.52 39.722-26.677 18.015-39.016 29.509-35.532 33.099 2.156 2.222 6.29.771 16.64-5.84 7.575-4.839 25.868-13.081 40.652-18.317 42.833-15.169 97.31-36.242 115.711-44.758 9.326-4.317 17.533-7.849 18.236-7.849 2.03 0-5.915 31.712-8.624 34.421-1.344 1.344-2.443 3.941-2.443 5.771 0 6.877 7.667 2.917 17.103-8.832 5.371-6.688 29.64-32.867 53.931-58.176 24.291-25.309 44.166-48.061 44.166-50.56 0-5.445-7.026-5.974-14.15-1.065m57.67 17.472c-4.928 2.876-12.416 8.449-16.64 12.384-14.504 13.515-57.397 48.38-76.051 61.818-10.268 7.397-26.157 19.378-35.309 26.625-18.154 14.375-79.36 78.202-79.36 82.759 0 4.648 7.152 3.22 17.92-3.577 5.576-3.52 10.8-6.4 11.61-6.4.809 0 8.032-4.419 16.05-9.819 8.019-5.4 32.436-18.796 54.26-29.768 46.614-23.435 66.34-36.781 84.239-56.994 24.188-27.316 47.5-83.823 34.01-82.437-.973.1-5.801 2.534-10.729 5.409m-81.481 14.249c-7.077 8.096-23.193 24.939-35.813 37.428l-22.947 22.708 1.334-11.828c1.254-11.125.971-11.828-4.76-11.826-3.351.001-13.581 3.579-22.733 7.952-17.568 8.393-64.216 27.053-92.16 36.865-9.152 3.213-18.944 6.709-21.76 7.769-3.437 1.293-4.279 1.077-2.56-.657 5.133-5.179 36.577-20.426 66.625-32.307 16.932-6.695 56.676-25.228 88.32-41.186 31.644-15.957 57.937-29.154 58.428-29.326.492-.171-4.897 6.312-11.974 14.408m-612.606-7.682c-1.932 2.462-6.889 7.934-11.015 12.16-17.749 18.174-37.338 45.821-46.534 65.673-5.444 11.753-14.789 30.585-20.767 41.849-5.978 11.264-16.221 31.18-22.762 44.258-6.54 13.078-12.417 23.254-13.058 22.612-.642-.642 1.754-15.374 5.324-32.738 8.573-41.692 11.084-66.132 6.795-66.132-1.766 0-11.334 7.2-21.263 16-11.905 10.552-16.902 13.821-14.674 9.6 9.226-17.476 25.837-39.007 43.452-56.32 16.073-15.798 24.796-21.844 49.233-34.125 16.334-8.209 33.564-17.656 38.287-20.995 10.41-7.356 11.544-7.655 6.982-1.842m690.143 22.807c-11.135 24.434-31.516 49.929-51.575 64.517-8.442 6.14-36.311 21.875-61.932 34.967-25.62 13.092-48.553 25.349-50.961 27.238-2.408 1.888 1.768-3.751 9.28-12.532 15.069-17.614 38.953-38.01 79.772-68.12 14.784-10.906 39.354-30.144 54.599-42.752 15.246-12.608 28.177-22.923 28.735-22.923.559 0-3.004 8.822-7.918 19.605m-574.073 70.708c-21.525 20.068-43.287 41.653-48.359 47.967-10.484 13.052-27.424 47.817-31.834 65.333-3.734 14.827-.248 20.091 8.289 12.519 8.478-7.519 40.058-47.97 59.812-76.612 9.71-14.08 26.074-36.713 36.362-50.295 16.366-21.603 22.967-35.538 16.787-35.432-1.056.018-19.532 16.452-41.057 36.52m-105.991-3.8c-45.167 45.247-68.183 78.187-75.234 107.676-4.513 18.874-4.592 18.291 2.475 18.291 16.47 0 53.622-35.04 71.93-67.84 10.765-19.285 29.899-80.806 25.046-80.527-1.083.062-11.981 10.142-24.217 22.4m236.008 5.708c-5.207 3.448-41.274 14.237-60.122 17.985-8.647 1.72-21.023 6.694-28.409 11.419-13.56 8.674-19.167 17.955-22.914 37.927-1.71 9.117-1.531 9.408 5.819 9.408 9.911 0 24.786-8.088 57.217-31.112 24.042-17.069 53.529-42.789 53.529-46.691 0-2.062-.582-1.941-5.12 1.064m-229.027 9.539c-8.587 34.706-34.987 72.775-64.599 93.148-11.283 7.763-11.511 7.807-9.698 1.881 6.592-21.54 18.717-41.839 39.534-66.183 32.461-37.962 38.196-42.721 34.763-28.846m461.987-.936c-9.152 3.134-40.256 17.374-69.12 31.645-51.829 25.626-61.267 29.38-121.6 48.376-49.495 15.584-67.927 29.451-41.394 31.144 23.559 1.502 58.073-5.943 85.233-18.388 13.904-6.371 35.687-14.981 48.405-19.135 26.461-8.642 48.482-20.14 74.161-38.722 9.853-7.13 24.539-17.593 32.635-23.25 8.096-5.656 14.72-11.97 14.72-14.029 0-4.833-2.903-4.535-23.04 2.359M446.293 661.12c-22.267 32.16-55.456 76.17-56.589 75.037-.554-.554 4.263-11.99 10.705-25.412 10.141-21.129 14.868-27.515 35.217-47.575 12.926-12.743 23.905-23.17 24.396-23.17.491 0-5.687 9.504-13.729 21.12m101.547-3.014c-13.28 11.349-54.257 38.214-58.289 38.214-2.428 0-2.971-1.759-1.777-5.76 4.421-14.813 18.808-27.809 35.746-32.289 10.467-2.769 29.698-7.374 32-7.662.704-.089-2.752 3.285-7.68 7.497m256-1.595c0 1.444-32.116 24.449-34.132 24.449-.816 0-7.244 3.397-14.285 7.548-7.041 4.152-25.811 12.089-41.712 17.638-15.901 5.55-38.703 14.454-50.671 19.787-18.985 8.461-60.385 18.376-63.542 15.218-1.454-1.454 15.532-8.295 39.222-15.795 55.475-17.565 72.674-24.383 116.48-46.177 51.754-25.748 48.64-24.297 48.64-22.668"/></svg>